<?xml version="1.0" encoding="UTF-8" standalone="no"?>
<!-- Copyright 2023-2025 Phase Five LLC.  For license terms, see LICENSE.txt in the repository root. -->

<svg
   width="197"
   height="197"
   version="1.1"
   id="svg1"
   xmlns="http://www.w3.org/2000/svg"
   xmlns:svg="http://www.w3.org/2000/svg">
  <path
     id="svg_4"
     style="font-variation-settings:normal;opacity:1;vector-effect:none;fill:#426373;fill-opacity:1;stroke:none;stroke-width:0;stroke-linecap:butt;stroke-linejoin:miter;stroke-miterlimit:4;stroke-dasharray:none;stroke-dashoffset:0;stroke-opacity:1;-inkscape-stroke:none;stop-color:#000000;stop-opacity:1"
     d="m 0,0 v 197 h 22.382812 v -59.16797 c 0,-7.1601 1.390115,-13.31078 4.169922,-18.44922 2.864044,-5.13843 6.822759,-9.09714 11.876954,-11.87695 5.054194,-2.7798 10.867042,-4.16992 17.437502,-4.16992 5.22267,0 9.8978,0.84261 14.02539,2.52734 4.127592,1.60049 7.622282,3.95942 10.486332,7.07617 2.94827,3.11675 5.181,6.82307 6.69726,11.11914 1.6005,4.21183 2.40039,8.88697 2.40039,14.02539 0,6.48622 -1.3474,12.21364 -4.04297,17.1836 -2.61133,4.88572 -6.27494,8.71823 -10.99218,11.49804 -4.633012,2.69558 -10.024562,4.04493 -16.173832,4.04493 -3.03252,0 -5.89623,-0.46402 -8.5918,-1.39063 -2.69557,-0.9266 -5.13798,-2.23128 -7.328124,-3.91601 -2.190151,-1.68474 -3.960808,-3.66507 -5.308594,-5.93946 h -0.125 V 197 H 197 V 0 Z m 94.658202,80.8457 h 16.677738 l 23.50195,73.15821 c 0.33695,1.01084 0.71749,1.72725 1.13867,2.14843 0.50542,0.33695 1.05293,0.50586 1.64258,0.50586 0.67389,0 1.22139,-0.16891 1.64258,-0.50586 0.42118,-0.42118 0.79977,-1.13759 1.13672,-2.14843 L 164.6582,80.8457 h 15.92188 l -27.67188,79.34961 c -1.26355,3.62217 -3.2866,6.31892 -6.0664,8.08789 -2.69557,1.68473 -5.76896,2.52735 -9.22266,2.52735 -3.36946,0 -6.40208,-0.84262 -9.09766,-2.52735 -2.69557,-1.68473 -4.75938,-4.38148 -6.1914,-8.08789 z M 55.86719,115.71875 c -3.62218,0 -6.86643,0.92609 -9.73047,2.7793 -2.864041,1.76896 -5.094819,4.25408 -6.695314,7.45507 -1.600495,3.201 -2.402344,6.90732 -2.402344,11.11915 0,4.12759 0.801849,7.83587 2.402344,11.12109 1.600495,3.20099 3.831273,5.72687 6.695314,7.58008 2.86404,1.76897 6.15101,2.65429 9.85742,2.65429 3.70641,0 6.94871,-0.92804 9.72852,-2.78125 2.86404,-1.8532 5.09677,-4.37908 6.697262,-7.58007 1.6005,-3.20099 2.40039,-6.86655 2.40039,-10.99414 0,-4.21183 -0.79989,-7.91815 -2.40039,-11.11915 -1.600492,-3.20099 -3.833222,-5.68611 -6.697262,-7.45507 -2.86405,-1.85321 -6.14906,-2.7793 -9.85547,-2.7793 z" />
</svg>
